<svg width="22" height="35" viewBox="0 0 22 35" fill="none" xmlns="http://www.w3.org/2000/svg">
<path d="M12.9232 20.0211L10.8776 15.4399L8.83198 20.0211L4.25781 20.7557L7.5677 24.3216L6.78637 29.3567L10.8776 26.9796L14.9688 29.3567L14.1875 24.3216L17.4974 20.7557L12.9232 20.0211ZM12.5031 25.6057L10.8776 24.6612L9.25212 25.6057L9.56257 23.6051L8.24755 22.1883L10.0648 21.8964L10.8776 20.0764L11.6906 21.8964L13.5079 22.1883L12.1928 23.6051L12.5031 25.6057Z" fill="#53C7F0"/>
<path d="M14.2363 3.5368L15.4211 0.917511L13.7606 0L12.1605 3.5368H9.59498L7.99488 0L6.33438 0.917778L7.51918 3.5368H0.666748V35H21.0885V3.5368H14.2363ZM2.52342 32.9482V13.7966H4.37986V11.7445H2.52342V5.58865H8.4474L9.37561 7.64076H8.09297V9.69261H13.6625V7.64076H11.4514L10.5232 5.58865H19.2321V11.7445H17.3756V13.7966H19.2321V32.9482H2.52342Z" fill="#53C7F0"/>
<path d="M11.8059 11.7444H15.519V13.7965H11.8059V11.7444Z" fill="#53C7F0"/>
<path d="M6.23633 11.7444H9.94944V13.7965H6.23633V11.7444Z" fill="#53C7F0"/>
</svg>
